#!OML:ASF E:\motion texture\Top Level 1\Subject 1\Session 1\male.ASF
:FULLY-SPECIFIED
:DEGREES
284
root 12.7579 17.4502 6.29488 35.5788 -70.0798 -23.633
lowerback 9.85723 4.09909 -2.36123
upperback 4.60788 4.95489 -3.79441
thorax -0.57676 2.39618 -3.10723
lowerneck -13.66 -9.24381 -14.8712
upperneck -4.1086 -11.0368 23.0085
head 3.38079 -4.97639 8.77628
rclavicle -3.97569e-015 0
rhumerus -13.4738 55.1744 -104.523
rradius 58.1235
rwrist 22.7688
rhand -28.1671 -20.252
rfingers 7.12502
rthumb -1.54732 -50.2262
lclavicle -3.97569e-015 0
lhumerus -28.9768 -13.0034 93.0639
lradius 68.8811
lwrist 39.5752
lhand -6.0343 45.944
lfingers 7.12502
lthumb 19.7994 74.9556
rfemur -42.4219 -15.4304 31.174
rtibia 43.7291
rfoot -10.292 -18.9925
rtoes 0.135834
lfemur -34.7814 -5.62075 -7.21485
ltibia 38.436
lfoot -14.3784 -7.74021
ltoes -1.4436
285
root 12.6104 17.4666 6.30898 35.0411 -70.1042 -22.9369
lowerback 9.77321 4.05057 -2.46578
upperback 4.5363 4.88634 -3.80578
thorax -0.615638 2.36189 -3.05092
lowerneck -13.6419 -9.25743 -14.8525
upperneck -4.02291 -11.075 23.0467
head 3.41247 -4.99219 8.78041
rclavicle 2.78299e-014 -4.45278e-014
rhumerus -14.662 54.3441 -105.37
rradius 58.1802
rwrist 22.5891
rhand -27.6806 -19.912
rfingers 7.12502
rthumb -1.07747 -49.889
lclavicle 2.78299e-014 -4.45278e-014
lhumerus -29.7356 -11.8497 92.6926
lradius 68.2546
lwrist 39.1661
lhand -5.9869 45.7192
lfingers 7.12502
lthumb 19.8449 74.726
rfemur -42.6726 -15.3162 30.8582
rtibia 41.9965
rfoot -10.1692 -18.9518
rtoes -0.0116093
lfemur -34.085 -5.8227 -7.41065
ltibia 37.9419
lfoot -14.7213 -7.61729
ltoes -1.63749
286
root 12.4624 17.4813 6.32304 34.5104 -70.1448 -22.2551
lowerback 9.68246 3.99941 -2.57049
upperback 4.46257 4.81455 -3.82053
thorax -0.652612 2.3261 -2.99733
lowerneck -13.6241 -9.26527 -14.8293
upperneck -3.93332 -11.1065 23.0808
head 3.44341 -5.00456 8.78328
rclavicle 1.74931e-014 3.49861e-014
rhumerus -15.7729 53.466 -106.123
rradius 58.2447
rwrist 22.3821
rhand -27.2019 -19.6013
rfingers 7.12502
rthumb -0.615111 -49.5801
lclavicle 1.74931e-014 3.49861e-014
lhumerus -30.4464 -10.6331 92.2587
lradius 67.5621
lwrist 38.7685
lhand -5.93565 45.5007
lfingers 7.12502
lthumb 19.8942 74.5024
rfemur -42.8875 -15.1769 30.5246
rtibia 40.2651
rfoot -10.0266 -18.9286
rtoes -0.143657
lfemur -33.3738 -6.02152 -7.61274
ltibia 37.4467
lfoot -15.0655 -7.47589
ltoes -1.84676
287
root 12.3138 17.4941 6.33697 34.001 -70.209 -21.5979
lowerback 9.58018 3.94855 -2.67871
upperback 4.38588 4.74344 -3.83836
thorax -0.686033 2.29072 -2.94441
lowerneck -13.6096 -9.26761 -14.8017
upperneck -3.83711 -11.1314 23.1096
head 3.47485 -5.0134 8.78434
rclavicle -6.36111e-015 -3.02153e-014
rhumerus -16.8079 52.5424 -106.779
rradius 58.3155
rwrist 22.1431
rhand -26.7306 -19.3261
rfingers 7.12502
rthumb -0.159915 -49.3058
lclavicle -6.36111e-015 -3.02153e-014
lhumerus -31.1095 -9.3563 91.7637
lradius 66.8005
lwrist 38.3883
lhand -5.88657 45.3016
lfingers 7.12502
lthumb 19.9414 74.2985
rfemur -43.0765 -15.0032 30.1756
rtibia 38.5486
rfoot -9.86711 -18.9234
rtoes -0.265274
lfemur -32.6525 -6.20803 -7.8212
ltibia 36.9528
lfoot -15.411 -7.31283
ltoes -2.07124
288
root 12.1646 17.5051 6.35088 33.4997 -70.2922 -20.9554
lowerback 9.46812 3.89823 -2.78952
upperback 4.30747 4.67334 -3.85857
thorax -0.715568 2.25591 -2.89204
lowerneck -13.5904 -9.2645 -14.7662
upperneck -3.73979 -11.1504 23.1298
head 3.50346 -5.01968 8.78215
rclavicle 7.23576e-014 -5.24792e-014
rhumerus -17.7745 51.5752 -107.343
rradius 58.3895
rwrist 21.8637
rhand -26.272 -19.0921
rfingers 7.12502
rthumb 0.283028 -49.0716
lclavicle 7.23576e-014 -5.24792e-014
lhumerus -31.7295 -8.02979 91.2106
lradius 65.9706
lwrist 38.0384
lhand -5.89219 45.1708
lfingers 7.12502
lthumb 19.936 74.1683
rfemur -43.2358 -14.8019 29.8098
rtibia 36.854
rfoot -9.69433 -18.938
rtoes -0.377594
lfemur -31.9177 -6.38579 -8.03853
ltibia 36.4606
lfoot -15.7569 -7.12858
ltoes -2.31054
289
root 12.0148 17.5143 6.3646 32.9926 -70.3877 -20.3133
lowerback 9.35356 3.84086 -2.90041
upperback 4.22669 4.59397 -3.88304
thorax -0.745781 2.21658 -2.84313
lowerneck -13.5791 -9.25427 -14.728
upperneck -3.6333 -11.1605 23.1486
head 3.53405 -5.02086 8.77994
rclavicle 1.66979e-014 -4.29375e-014
rhumerus -18.6778 50.5768 -107.829
rradius 58.4631
rwrist 21.5418
rhand -25.8244 -18.9017
rfingers 7.12502
rthumb 0.715329 -48.8802
lclavicle 1.66979e-014 -4.29375e-014
lhumerus -32.3072 -6.64387 90.5912
lradius 65.07
lwrist 37.7169
lhand -5.91638 45.0794
lfingers 7.12502
lthumb 19.9127 74.0792
rfemur -43.3668 -14.5776 29.4252
rtibia 35.1884
rfoot -9.51539 -18.9765
rtoes -0.469258
lfemur -31.1731 -6.55909 -8.26588
ltibia 35.9741
lfoot -16.104 -6.9263
ltoes -2.56266
290
root 11.8641 17.5216 6.37818 32.5004 -70.5062 -19.6916
lowerback 9.22936 3.78336 -3.01364
upperback 4.14517 4.51476 -3.91044
thorax -0.771084 2.17736 -2.79546
lowerneck -13.5753 -9.23864 -14.6844
upperneck -3.51899 -11.1641 23.161
head 3.566 -5.01824 8.77529
rclavicle 6.36111e-015 -1.27222e-014
rhumerus -19.5205 49.5464 -108.231
rradius 58.5354
rwrist 21.1764
rhand -25.3954 -18.7612
rfingers 7.12502
rthumb 1.12972 -48.7379
lclavicle 6.36111e-015 -1.27222e-014
lhumerus -32.8424 -5.20613 89.9097
lradius 64.0942
lwrist 37.4089
lhand -5.94066 45.0188
lfingers 7.12502
lthumb 19.8894 74.021
rfemur -43.474 -14.3192 29.0262
rtibia 33.5629
rfoot -9.33162 -19.0345
rtoes -0.544777
lfemur -30.4159 -6.71741 -8.50145
ltibia 35.4919
lfoot -16.4503 -6.70196
ltoes -2.82908
